<svg xmlns="http://www.w3.org/2000/svg" width="777.14" height="94.52" viewBox="-10 -10 225.62 45.01"><g aria-label="LCAT:Report"><path d="M3.69 23.8h11.84c.66 0 1.05-.38 1.05-1.04v-3.13c0-.66-.39-1.04-1.05-1.04H8.9c-.66 0-1.04-.38-1.04-1.04V.53c0-.66-.38-1.04-1.04-1.04H3.69c-.66 0-1.04.38-1.04 1.04v22.23c0 .66.38 1.04 1.04 1.04zm15.04-12.09c0 8.96 4.69 12.44 9.83 12.44h.07c4.24 0 8.1-2.09 9.24-7.16.17-.73-.25-1.15-.94-1.15h-3.16c-.6 0-.97.28-1.22.87-.93 1.98-2.46 2.23-3.92 2.23h-.07c-2.22 0-4.62-.63-4.62-7.23v-.14c0-6.6 2.4-7.22 4.62-7.22h.07c1.98 0 3.12.24 3.92 2.22.25.6.63.87 1.22.87h3.16c.7 0 1.11-.42.94-1.15-1.15-5.07-5-7.15-9.24-7.15h-.07c-5.14 0-9.83 3.47-9.83 12.43zM40.26 23.8h3.17c.59 0 .97-.28 1.18-.84l.76-2.18c.2-.56.6-.84 1.18-.84h6.53c.6 0 1 .28 1.18.87l.7 2.12c.17.6.59.87 1.18.87h3.16c.76 0 1.11-.49.87-1.18L52.87.35c-.17-.59-.59-.86-1.18-.86h-3.4c-.6 0-.97.27-1.18.83l-7.68 22.3c-.24.7.07 1.18.83 1.18zm7.61-10.25 1.36-3.96c.3-.94 1.04-.97 1.35 0l1.29 3.96c.24.7-.1 1.18-.87 1.18h-2.3c-.76 0-1.07-.48-.83-1.18zM59.78 4.7h3.58c.66 0 1.04.38 1.04 1.04v17.02c0 .66.39 1.04 1.05 1.04h3.3c.66 0 1.04-.38 1.04-1.04V5.74c0-.66.38-1.04 1.04-1.04h3.58c.66 0 1.04-.39 1.04-1.05V.53c0-.66-.38-1.04-1.04-1.04H59.78c-.66 0-1.04.38-1.04 1.04v3.12c0 .66.38 1.05 1.04 1.05zm17.68 2.53v2.78c0 .66.39 1.04 1.05 1.04h2.77c.66 0 1.05-.38 1.05-1.04V7.23c0-.66-.39-1.04-1.05-1.04h-2.77c-.66 0-1.05.38-1.05 1.04zm0 12.75v2.78c0 .66.39 1.04 1.05 1.04h2.77c.66 0 1.05-.38 1.05-1.04v-2.78c0-.66-.39-1.04-1.05-1.04h-2.77c-.66 0-1.05.38-1.05 1.04z"/><path fill="#2563eb" d="M86.15 23.8h3.12c.66 0 1.11-.38 1.25-1.04l1.11-6.36c.1-.66.56-1.08 1.22-1.08h.28c.59 0 .97.21 1.11.77l2.05 6.94c.14.56.49.77 1.08.77h3.4c.8 0 1.22-.56 1-1.25l-2.25-6.67c-.17-.66.14-1.08.83-1.36a5.42 5.42 0 0 0 1.57-.97c3.09-2.4 4.37-9.65 2.29-12.26-1.29-1.8-4.38-1.8-9.59-1.8h-4.17c-.66 0-1.1.38-1.25 1.04l-3.89 22.23c-.14.66.18 1.04.84 1.04zm6.67-14.07.76-4.3c.1-.67.56-1.05 1.22-1.05 1.87-.03 3.78-.1 4.44.32 1.4.66.6 5.14-1 5.8-.8.38-2.72.3-4.6.27-.65 0-.96-.38-.82-1.04zm13.75 14.07h13.58c.66 0 1.11-.38 1.25-1.04l.52-3.13c.14-.66-.17-1.04-.83-1.04h-8.37c-.66 0-.97-.38-.87-1.04l.38-2.26c.14-.66.6-1.04 1.25-1.04h7.68c.66 0 1.1-.39 1.21-1.05l.56-3.12c.1-.66-.2-1.04-.87-1.04h-7.68c-.65 0-.97-.39-.83-1.05l.38-2.25c.1-.66.56-1.04 1.22-1.04h8.37c.66 0 1.11-.39 1.25-1.05l.52-3.12c.14-.66-.17-1.04-.83-1.04h-13.58c-.66 0-1.11.38-1.25 1.04l-3.9 22.23c-.13.66.18 1.04.84 1.04zm19.55 0h3.13c.66 0 1.11-.38 1.25-1.04l.94-5.32c.1-.66.55-1.04 1.25-1.04 4.83-.03 7.36-.31 9.03-1.8 3.1-2.4 4.55-10.7 2.47-13.3-1.29-1.81-4.38-1.81-9.59-1.81h-4.17c-.66 0-1.11.38-1.25 1.04l-3.89 22.23c-.14.66.17 1.04.83 1.04zm6.47-13.03.97-5.35c.1-.66.55-1.04 1.21-1.04 1.88-.03 3.79-.1 4.45.32 1.39.66.42 6.18-1.18 6.84-.8.38-2.71.31-4.59.28-.66 0-.97-.39-.86-1.05zm14.13.8c-1.6 9.1 2.85 12.58 7.99 12.58 5.45 0 10.84-3.48 12.43-12.58 1.6-8.96-2.6-12.43-8.05-12.43-5.14 0-10.77 3.47-12.37 12.43zm5.21 0c1.18-6.6 4.03-7.22 6.25-7.22 2.23 0 4.94.62 3.75 7.22-1.18 6.7-4.1 7.37-6.32 7.37-2.22 0-4.86-.66-3.68-7.37zm18.03 12.23h3.12c.66 0 1.12-.38 1.25-1.04l1.12-6.36c.1-.66.55-1.08 1.21-1.08h.28c.59 0 .97.21 1.11.77l2.05 6.94c.14.56.49.77 1.08.77h3.4c.8 0 1.22-.56 1-1.25l-2.25-6.67c-.17-.66.14-1.08.83-1.36a5.42 5.42 0 0 0 1.57-.97c3.09-2.4 4.37-9.65 2.29-12.26-1.29-1.8-4.38-1.8-9.59-1.8h-4.17c-.66 0-1.1.38-1.25 1.04l-3.89 22.23c-.13.66.18 1.04.84 1.04zm6.67-14.07.76-4.3c.1-.67.56-1.05 1.22-1.05 1.87-.03 3.78-.1 4.44.32 1.4.66.6 5.14-1 5.8-.8.38-2.71.3-4.59.27-.66 0-.97-.38-.83-1.04zm15.21-5.03h3.58c.66 0 .97.38.87 1.04l-3 17.02c-.13.66.18 1.04.84 1.04h3.3c.66 0 1.11-.38 1.25-1.04l2.99-17.02c.1-.66.56-1.04 1.21-1.04h3.58c.66 0 1.11-.39 1.25-1.05l.52-3.12c.14-.66-.17-1.04-.83-1.04h-14.62c-.66 0-1.11.38-1.25 1.04L191 3.65c-.14.66.17 1.05.83 1.05z"/></g></svg>